<svg width="156" height="156" viewBox="0 0 156 156" fill="none" xmlns="http://www.w3.org/2000/svg">
<path d="M74.2486 3.13803C75.5372 -0.344446 80.4628 -0.344451 81.7514 3.13802L91.2237 28.7365C97.4021 45.4334 110.567 58.5979 127.263 64.7763L152.862 74.2486C156.344 75.5372 156.344 80.4628 152.862 81.7514L127.263 91.2237C110.567 97.4021 97.4021 110.567 91.2237 127.263L81.7514 152.862C80.4628 156.344 75.5372 156.344 74.2486 152.862L64.7763 127.263C58.5979 110.567 45.4334 97.4021 28.7366 91.2237L3.13803 81.7514C-0.344446 80.4628 -0.344451 75.5372 3.13802 74.2486L28.7365 64.7763C45.4334 58.5979 58.5979 45.4334 64.7763 28.7366L74.2486 3.13803Z" fill="#30A646"/>
</svg>
