<svg width="219" height="62" viewBox="0 0 219 62" fill="none" xmlns="http://www.w3.org/2000/svg">
<path d="M60.2385 46.7123H61.8732V51.3111H63.6997V52.554H60.2385V46.7123Z" fill="#32A647"/>
<path d="M68.372 52.554L68.0551 51.6011H65.97L65.6531 52.554H63.935L66.0784 46.7123H67.9633L70.0984 52.554H68.372ZM67.6464 50.3582L67.0125 48.469L66.387 50.3582H67.6464Z" fill="#32A647"/>
<path d="M72.2276 52.554V46.7123H76.2142V48.0049H73.8623V49.0324H75.597V50.267H73.8623V52.554H72.2276Z" fill="#32A647"/>
<path d="M82.7325 49.6124C82.7325 51.3691 81.3897 52.612 79.7216 52.612C78.0536 52.612 76.7025 51.3691 76.7025 49.6124C76.7025 47.8558 78.0536 46.6212 79.7216 46.6212C81.398 46.6212 82.7325 47.8558 82.7325 49.6124ZM78.3705 49.6124C78.3705 50.5156 78.8709 51.1039 79.7216 51.1039C80.564 51.1039 81.0728 50.5156 81.0728 49.6124C81.0728 48.6927 80.564 48.1127 79.7216 48.1127C78.8709 48.1127 78.3705 48.6927 78.3705 49.6124Z" fill="#32A647"/>
<path d="M86.5782 48.6761C86.5782 48.3115 86.353 48.0712 85.911 48.0712H85.102V49.2893H85.911C86.353 49.2893 86.5782 49.0738 86.5782 48.6761ZM83.4673 46.7123H86.0444C87.504 46.7123 88.2379 47.5409 88.2379 48.585C88.2379 49.3473 87.8209 50.0102 86.9452 50.2753L88.2713 52.554H86.4448L85.2771 50.3996H85.102V52.554H83.4673V46.7123Z" fill="#32A647"/>
<path d="M88.7811 49.6207C88.7811 47.8807 89.9404 46.6543 91.7085 46.6543C93.1848 46.6543 94.2356 47.4995 94.5275 48.8253H92.7678C92.5592 48.3861 92.1673 48.1458 91.6835 48.1458C90.9329 48.1458 90.4408 48.7258 90.4408 49.6207C90.4408 50.5239 90.9329 51.1039 91.6835 51.1039C92.1673 51.1039 92.5592 50.8636 92.7678 50.4245H94.5275C94.2356 51.7502 93.1848 52.5954 91.7085 52.5954C89.9404 52.5954 88.7811 51.3691 88.7811 49.6207Z" fill="#32A647"/>
<path d="M99.063 46.7123V48.0132H96.9363V48.9661H98.8128V50.2007H96.9363V51.2531H99.063V52.554H95.3016V46.7123H99.063Z" fill="#32A647"/>
<path d="M103.794 46.7123C105.671 46.7123 106.863 47.9138 106.863 49.629C106.863 51.3193 105.671 52.554 103.794 52.554H101.467V46.7123H103.794ZM103.102 51.1205H103.669C104.611 51.1205 105.204 50.5902 105.204 49.629C105.204 48.6595 104.611 48.121 103.669 48.121H103.102V51.1205Z" fill="#32A647"/>
<path d="M111.362 46.7123V48.0132H109.235V48.9661H111.111V50.2007H109.235V51.2531H111.362V52.554H107.6V46.7123H111.362Z" fill="#32A647"/>
<path d="M113.766 46.7123H115.4V51.3111H117.227V52.554H113.766V46.7123Z" fill="#32A647"/>
<path d="M121.899 52.554L121.582 51.6011H119.497L119.18 52.554H117.462L119.606 46.7123H121.491L123.626 52.554H121.899ZM121.174 50.3582L120.54 48.469L119.914 50.3582H121.174Z" fill="#32A647"/>
<path d="M129.566 46.7123H131.201V52.554H129.566L127.389 49.2893V52.554H125.755V46.7123H127.389L129.566 50.0184V46.7123Z" fill="#32A647"/>
<path d="M136.169 52.554L135.852 51.6011H133.767L133.45 52.554H131.732L133.875 46.7123H135.76L137.895 52.554H136.169ZM135.443 50.3582L134.809 48.469L134.184 50.3582H135.443Z" fill="#32A647"/>
<path d="M138.103 48.0049V46.7123H142.857V48.0049H141.289V52.554H139.654V48.0049H138.103Z" fill="#32A647"/>
<path d="M143.436 50.1013V46.7123H145.063V50.1013C145.063 50.7062 145.338 51.0873 145.955 51.0873C146.572 51.0873 146.864 50.7062 146.864 50.1013V46.7123H148.499V50.1013C148.499 51.7668 147.331 52.612 145.922 52.612C144.504 52.612 143.436 51.7668 143.436 50.1013Z" fill="#32A647"/>
<path d="M152.51 48.6761C152.51 48.3115 152.285 48.0712 151.843 48.0712H151.034V49.2893H151.843C152.285 49.2893 152.51 49.0738 152.51 48.6761ZM149.399 46.7123H151.976C153.436 46.7123 154.17 47.5409 154.17 48.585C154.17 49.3473 153.753 50.0102 152.877 50.2753L154.203 52.554H152.376L151.209 50.3996H151.034V52.554H149.399V46.7123Z" fill="#32A647"/>
<path d="M158.674 46.7123V48.0132H156.548V48.9661H158.424V50.2007H156.548V51.2531H158.674V52.554H154.913V46.7123H158.674Z" fill="#32A647"/>
<path d="M25.9728 24.0294C31.7971 25.6037 37.9897 26.5635 43.0494 30.0644C47.7686 33.4616 48.6512 40.1042 46.8372 45.2623C43.1884 56.2205 29.2533 57.4013 19.4814 55.8891C11.6833 55.0812 4.59408 49.1084 4.02417 38.8613H17.167C17.167 52.5194 43.0772 45.2347 32.0264 37.943C30.831 37.1627 29.5105 36.5965 28.1413 36.196C21.8792 34.3662 15.1931 33.5721 9.89012 29.4636C2.71059 23.4425 6.08142 12.3945 13.7475 8.08576C24.7079 2.14746 45.3777 5.46185 45.3777 21.3986C45.3777 21.3986 33.3817 21.3986 33.3817 21.3157C28.2386 7.74051 6.31773 19.5481 25.9798 24.0294H25.9728Z" fill="#714822"/>
<path d="M109.417 8.75554C110.966 9.667 112.176 10.9237 113.045 12.5119C113.913 14.1069 114.344 15.8884 114.344 17.8632V18.464C114.344 20.4388 113.906 22.2341 113.045 23.843C112.176 25.4518 110.966 26.7085 109.417 27.6269C107.867 28.5384 106.101 28.9941 104.114 28.9941H95.4954V38.6956H86.1544V7.38835H104.114C106.101 7.38835 107.867 7.84408 109.417 8.75554ZM95.5023 21.5298H101.111C102.293 21.5298 103.175 21.2536 103.759 20.6943C104.35 20.135 104.642 19.3754 104.642 18.4225V18.0497C104.642 17.0623 104.35 16.2958 103.759 15.7572C103.175 15.2186 102.293 14.9493 101.111 14.9493H95.5023V21.5367V21.5298Z" fill="#714822"/>
<path d="M117.931 38.7163V7.38835H127.862V38.7163H117.931Z" fill="#714822"/>
<path d="M151.917 38.7163L141.791 21.7784V38.7163H132.846V7.38835H142.513L152.278 24.6647L152.327 7.38835H161.418V38.7163H151.924H151.917Z" fill="#714822"/>
<path d="M204.245 9.97082L204.154 9.90177C200.179 6.72547 194.987 5.13732 189.83 5.15113H189.615C184.465 5.13732 179.266 6.72547 175.29 9.90177L175.2 9.97082C169.035 14.8734 166.109 22.8348 166.165 30.7618V30.8032C166.109 38.7301 169.035 46.6985 175.2 51.5942L175.29 51.6632C179.266 54.8395 184.458 56.4277 189.615 56.4138H189.83C194.98 56.4277 200.179 54.8395 204.154 51.6632L204.245 51.5942C210.41 46.6916 213.336 38.7301 213.28 30.8032V30.7618C213.336 22.8348 210.41 14.8665 204.245 9.97082ZM201.472 31.7768C201.472 40.2147 196.21 45.863 189.719 45.9942C183.227 45.863 177.966 40.2078 177.966 31.7768C177.966 31.4523 177.966 31.1346 177.98 30.8101V30.7687C177.966 30.4441 177.966 30.1265 177.966 29.802C177.966 21.3641 183.227 15.7158 189.719 15.5846C196.21 15.7158 201.472 21.371 201.472 29.802C201.472 30.1265 201.472 30.4441 201.458 30.7687V30.8101C201.472 31.1346 201.472 31.4523 201.472 31.7768Z" fill="#714822"/>
<path d="M71.7119 7.32621H63.1632L51.195 38.8199L60.2163 38.8406L61.4952 34.38H72.7336L74.0194 38.8406L83.1172 38.8199L71.7189 7.32621H71.7119ZM62.1137 27.3093C63.33 26.4254 64.4768 25.6521 65.0537 24.3401H63.4134C64.4559 23.3113 65.3873 22.3929 66.3186 21.4746C66.2769 21.4124 66.2352 21.3572 66.1865 21.295H64.9494C65.9641 19.5964 66.9789 17.8978 67.9449 16.282C68.2924 16.9863 68.6677 17.884 69.1682 18.7264C69.6825 19.5895 70.3219 20.3905 70.9474 21.2881H69.5435C69.5018 21.3434 69.4601 21.3986 69.4114 21.4538C70.3427 22.3653 71.2741 23.2768 72.2888 24.2711H70.6972C71.2393 25.6245 72.3652 26.4185 73.658 27.3024C69.7311 28.1241 65.9989 28.1034 62.1137 27.3162V27.3093Z" fill="#714822"/>
<path d="M26.647 24.6094C32.4573 26.17 38.636 27.1228 43.6888 30.603C48.401 33.9795 49.2767 40.5738 47.4697 45.6973C43.8278 56.5865 29.9274 57.7534 20.1763 56.2481C12.3991 55.4403 5.32382 50.1096 4.75391 39.9385H17.8619C17.8619 53.5068 43.7166 45.6766 32.6867 38.4263C31.4982 37.653 30.1776 37.0868 28.8085 36.6932C22.5603 34.8772 15.8881 34.09 10.599 30.0091C3.43337 24.0294 6.97101 13.2852 14.4494 8.77626C25.382 2.87939 46.3716 5.46186 46.3716 21.2881C46.3716 21.2881 34.4034 21.2881 34.4034 21.2053C29.2741 7.71979 7.04051 20.1626 26.6609 24.6163L26.647 24.6094Z" fill="#32A647"/>
<path d="M72.4347 7.7267H63.886L51.9178 38.8199L60.9391 38.8406L62.2179 34.4352H73.4564L74.7422 38.8406L83.8399 38.8199L72.4417 7.7267H72.4347ZM62.1137 27.8824C63.33 27.0124 64.4768 26.2459 65.0536 24.9547H63.4134C64.4559 23.9396 65.3872 23.0351 66.3185 22.1236C66.2768 22.0615 66.2351 22.0062 66.1865 21.951H64.9494C65.9641 20.2731 66.9788 18.5952 67.9449 17.007C68.2924 17.7044 68.6677 18.5883 69.1681 19.4169C69.6824 20.2662 70.3219 21.0603 70.9474 21.9441H69.5434C69.5017 21.9993 69.46 22.0546 69.4114 22.1029C70.3427 23.0006 71.274 23.9051 72.2888 24.8787H70.6972C71.2393 26.2183 72.3652 26.9986 73.6579 27.8686C69.7311 28.6765 65.9988 28.6627 62.1137 27.8824Z" fill="#32A647"/>
<path d="M113.886 12.8157C113.017 11.2344 111.814 9.99154 110.264 9.08698C108.722 8.18243 106.956 7.7336 104.968 7.7336H87.0509V38.8268H96.3711V29.1943H104.968C106.956 29.1943 108.715 28.7386 110.264 27.8341C111.814 26.9295 113.017 25.6797 113.886 24.0846C114.754 22.4827 115.185 20.7081 115.185 18.7471V18.1463C115.185 16.1853 114.754 14.4107 113.886 12.8295V12.8157ZM105.497 18.6849C105.497 19.6378 105.205 20.3905 104.614 20.9498C104.03 21.5022 103.148 21.7784 101.973 21.7784H96.3711V15.2393H101.973C103.148 15.2393 104.03 15.5086 104.614 16.0403C105.205 16.5789 105.497 17.3385 105.497 18.319V18.6849Z" fill="#32A647"/>
<path d="M118.751 7.7267V38.8406H128.655V7.7267H118.751Z" fill="#32A647"/>
<path d="M153.071 7.7267L153.022 24.8856L143.278 7.7267H133.631V38.8406H142.555V22.02L152.654 38.8406H162.127V7.7267H153.064H153.071Z" fill="#32A647"/>
<path d="M204.877 10.6475L204.787 10.5785C200.818 7.42288 195.64 5.84854 190.49 5.85544H190.275C185.132 5.84163 179.954 7.42288 175.985 10.5785L175.895 10.6475C169.744 15.5155 166.825 23.4218 166.881 31.2935V31.3349C166.825 39.2066 169.744 47.1197 175.895 51.9878L175.985 52.0568C179.954 55.2124 185.132 56.7867 190.275 56.7798H190.49C195.634 56.7936 200.818 55.2124 204.787 52.0568L204.877 51.9878C211.028 47.1197 213.947 39.2066 213.892 31.3349V31.2935C213.947 23.4218 211.028 15.5086 204.877 10.6475ZM202.111 32.3016C202.111 40.6843 196.857 46.298 190.379 46.4223C183.902 46.2911 178.654 40.6774 178.654 32.3016C178.654 31.984 178.661 31.6663 178.675 31.3418V31.3004C178.661 30.9758 178.654 30.6651 178.654 30.3406C178.654 21.9648 183.902 16.351 190.379 16.2198C196.857 16.351 202.111 21.9648 202.111 30.3406C202.111 30.6651 202.104 30.9758 202.09 31.3004V31.3418C202.104 31.6663 202.111 31.984 202.111 32.3016Z" fill="#32A647"/>
</svg>
