<svg width="403" height="102" viewBox="0 0 403 102" fill="none" xmlns="http://www.w3.org/2000/svg">
<g clip-path="url(#clip0_7_2)">
<path d="M91.5469 92.3516H98.1406C98.3125 92.3516 98.4375 92.2422 98.4375 92.0703V89.9766C98.4375 89.8047 98.3125 89.6797 98.1406 89.6797H94.2656V79.3203C94.2656 79.1484 94.1563 79.0234 93.9844 79.0234H91.5469C91.375 79.0234 91.25 79.1484 91.25 79.3203V92.0703C91.25 92.2422 91.375 92.3516 91.5469 92.3516ZM100.148 92.3516H102.68C102.82 92.3516 102.945 92.2891 102.992 92.1172L103.57 90.3359H108.367L108.93 92.1172C108.992 92.2891 109.102 92.3516 109.258 92.3516H111.805C112.023 92.3516 112.117 92.2109 112.039 92.0234L107.617 79.2578C107.57 79.1016 107.414 79.0234 107.258 79.0234H104.664C104.523 79.0234 104.367 79.1016 104.305 79.2578L99.8984 92.0234C99.8203 92.2109 99.9297 92.3516 100.148 92.3516ZM104.43 87.6641L105.961 82.8516L107.508 87.6641H104.43ZM118.055 92.3516H120.492C120.664 92.3516 120.773 92.2422 120.773 92.0703V86.8672H124.602C124.773 86.8672 124.883 86.7578 124.883 86.5859V84.4922C124.883 84.3203 124.773 84.2109 124.602 84.2109H120.773V81.6953H124.836C125.008 81.6953 125.133 81.5859 125.133 81.4141V79.3203C125.133 79.1484 125.008 79.0234 124.836 79.0234H118.055C117.883 79.0234 117.758 79.1484 117.758 79.3203V92.0703C117.758 92.2422 117.883 92.3516 118.055 92.3516ZM133.66 92.6016C137.441 92.6016 140.52 89.5859 140.52 85.7422C140.52 81.8828 137.441 78.8828 133.66 78.8828C129.879 78.8828 126.801 81.8828 126.801 85.7422C126.801 89.5859 129.879 92.6016 133.66 92.6016ZM129.848 85.7422C129.848 83.5078 131.504 81.8203 133.66 81.8203C135.816 81.8203 137.457 83.5078 137.457 85.7422C137.457 87.9609 135.816 89.6484 133.66 89.6484C131.504 89.6484 129.848 87.9609 129.848 85.7422ZM149.563 92.3516H152.172C152.391 92.3516 152.484 92.2109 152.359 92.0078L149.406 87.3984C151.094 86.7578 151.922 85.2891 151.922 83.4141C151.922 80.8203 150.391 79.0234 147.188 79.0234H143.094C142.922 79.0234 142.797 79.1484 142.797 79.3203V92.0703C142.797 92.2422 142.922 92.3516 143.094 92.3516H145.531C145.703 92.3516 145.813 92.2422 145.813 92.0703V87.7578H146.5L149.219 92.1641C149.297 92.2891 149.406 92.3516 149.563 92.3516ZM145.813 85.1016V81.6953H147.109C148.109 81.6953 149.047 82.0234 149.047 83.4141C149.047 84.7734 148.109 85.1016 147.109 85.1016H145.813ZM160.66 92.6016C162.582 92.6016 164.176 91.8359 165.363 90.6172C165.488 90.4922 165.457 90.3516 165.363 90.2422L163.832 88.6172C163.723 88.4922 163.566 88.4922 163.441 88.5859C162.691 89.2266 161.785 89.6484 160.676 89.6484C158.488 89.6484 156.832 87.9922 156.832 85.7422C156.832 83.4766 158.488 81.8203 160.676 81.8203C161.785 81.8203 162.691 82.2422 163.441 82.8984C163.566 82.9922 163.723 82.9922 163.832 82.8516L165.363 81.2422C165.457 81.1172 165.488 80.9922 165.363 80.8516C164.176 79.6328 162.582 78.8828 160.66 78.8828C156.895 78.8828 153.785 81.8203 153.785 85.7422C153.785 89.6641 156.895 92.6016 160.66 92.6016ZM167.949 92.3516H174.793C174.965 92.3516 175.105 92.2422 175.105 92.0703V89.9766C175.105 89.8047 174.965 89.6797 174.793 89.6797H170.668V86.9609H174.574C174.73 86.9609 174.855 86.8516 174.855 86.6797V84.5859C174.855 84.4141 174.73 84.3047 174.574 84.3047H170.668V81.6953H174.809C174.98 81.6953 175.105 81.5859 175.105 81.4141V79.3203C175.105 79.1484 174.98 79.0234 174.809 79.0234H167.949C167.777 79.0234 167.652 79.1484 167.652 79.3203V92.0703C167.652 92.2422 167.777 92.3516 167.949 92.3516ZM181.574 92.3516H185.699C190.137 92.3516 192.512 89.4141 192.512 85.6953C192.512 81.9609 190.137 79.0234 185.699 79.0234H181.574C181.402 79.0234 181.277 79.1484 181.277 79.3203V92.0703C181.277 92.2422 181.402 92.3516 181.574 92.3516ZM184.293 89.6797V81.6953H185.668C188.152 81.6953 189.449 83.1016 189.449 85.6953C189.449 88.2734 188.152 89.6797 185.668 89.6797H184.293ZM194.988 92.3516H201.832C202.004 92.3516 202.145 92.2422 202.145 92.0703V89.9766C202.145 89.8047 202.004 89.6797 201.832 89.6797H197.707V86.9609H201.613C201.77 86.9609 201.895 86.8516 201.895 86.6797V84.5859C201.895 84.4141 201.77 84.3047 201.613 84.3047H197.707V81.6953H201.848C202.02 81.6953 202.145 81.5859 202.145 81.4141V79.3203C202.145 79.1484 202.02 79.0234 201.848 79.0234H194.988C194.816 79.0234 194.691 79.1484 194.691 79.3203V92.0703C194.691 92.2422 194.816 92.3516 194.988 92.3516ZM208.613 92.3516H215.207C215.379 92.3516 215.504 92.2422 215.504 92.0703V89.9766C215.504 89.8047 215.379 89.6797 215.207 89.6797H211.332V79.3203C211.332 79.1484 211.223 79.0234 211.051 79.0234H208.613C208.441 79.0234 208.316 79.1484 208.316 79.3203V92.0703C208.316 92.2422 208.441 92.3516 208.613 92.3516ZM217.215 92.3516H219.746C219.887 92.3516 220.012 92.2891 220.059 92.1172L220.637 90.3359H225.434L225.996 92.1172C226.059 92.2891 226.168 92.3516 226.324 92.3516H228.871C229.09 92.3516 229.184 92.2109 229.105 92.0234L224.684 79.2578C224.637 79.1016 224.48 79.0234 224.324 79.0234H221.73C221.59 79.0234 221.434 79.1016 221.371 79.2578L216.965 92.0234C216.887 92.2109 216.996 92.3516 217.215 92.3516ZM221.496 87.6641L223.027 82.8516L224.574 87.6641H221.496ZM242.59 92.3516H245.434C245.605 92.3516 245.715 92.2422 245.715 92.0703V79.3203C245.715 79.1484 245.606 79.0234 245.434 79.0234H242.996C242.824 79.0234 242.715 79.1484 242.715 79.3203V87.4609L238.293 79.2266C238.215 79.0859 238.105 79.0234 237.949 79.0234H235.121C234.949 79.0234 234.824 79.1484 234.824 79.3203V92.0703C234.824 92.2422 234.949 92.3516 235.121 92.3516H237.559C237.73 92.3516 237.84 92.2422 237.84 92.0703V83.9141L242.246 92.1641C242.324 92.2891 242.449 92.3516 242.59 92.3516ZM247.891 92.3516H250.422C250.563 92.3516 250.687 92.2891 250.734 92.1172L251.312 90.3359H256.109L256.672 92.1172C256.734 92.2891 256.844 92.3516 257 92.3516H259.547C259.766 92.3516 259.859 92.2109 259.781 92.0234L255.359 79.2578C255.312 79.1016 255.156 79.0234 255 79.0234H252.406C252.266 79.0234 252.109 79.1016 252.047 79.2578L247.641 92.0234C247.562 92.2109 247.672 92.3516 247.891 92.3516ZM252.172 87.6641L253.703 82.8516L255.25 87.6641H252.172ZM262.465 92.3516H264.902C265.074 92.3516 265.184 92.2422 265.184 92.0703V81.6953H267.715C267.887 81.6953 268.012 81.5859 268.012 81.4141V79.3203C268.012 79.1484 267.887 79.0234 267.715 79.0234H259.621C259.449 79.0234 259.34 79.1484 259.34 79.3203V81.4141C259.34 81.5859 259.449 81.6953 259.621 81.6953H262.152V92.0703C262.152 92.2422 262.293 92.3516 262.465 92.3516ZM275.355 92.6016C278.371 92.6016 280.512 90.7578 280.512 87.1328V79.3203C280.512 79.1484 280.402 79.0234 280.23 79.0234H277.793C277.621 79.0234 277.512 79.1484 277.512 79.3203V87.1016C277.512 88.7109 276.73 89.6484 275.355 89.6484C273.965 89.6484 273.215 88.7109 273.215 87.1016V79.3203C273.215 79.1484 273.09 79.0234 272.918 79.0234H270.496C270.324 79.0234 270.199 79.1484 270.199 79.3203V87.1328C270.199 90.7578 272.34 92.6016 275.355 92.6016ZM289.887 92.3516H292.496C292.715 92.3516 292.809 92.2109 292.684 92.0078L289.73 87.3984C291.418 86.7578 292.246 85.2891 292.246 83.4141C292.246 80.8203 290.715 79.0234 287.512 79.0234H283.418C283.246 79.0234 283.121 79.1484 283.121 79.3203V92.0703C283.121 92.2422 283.246 92.3516 283.418 92.3516H285.855C286.027 92.3516 286.137 92.2422 286.137 92.0703V87.7578H286.824L289.543 92.1641C289.621 92.2891 289.73 92.3516 289.887 92.3516ZM286.137 85.1016V81.6953H287.434C288.434 81.6953 289.371 82.0234 289.371 83.4141C289.371 84.7734 288.434 85.1016 287.434 85.1016H286.137ZM295.141 92.3516H301.984C302.156 92.3516 302.297 92.2422 302.297 92.0703V89.9766C302.297 89.8047 302.156 89.6797 301.984 89.6797H297.859V86.9609H301.766C301.922 86.9609 302.047 86.8516 302.047 86.6797V84.5859C302.047 84.4141 301.922 84.3047 301.766 84.3047H297.859V81.6953H302C302.172 81.6953 302.297 81.5859 302.297 81.4141V79.3203C302.297 79.1484 302.172 79.0234 302 79.0234H295.141C294.969 79.0234 294.844 79.1484 294.844 79.3203V92.0703C294.844 92.2422 294.969 92.3516 295.141 92.3516Z" fill="#35A647"/>
<mask id="mask0_7_2" style="mask-type:luminance" maskUnits="userSpaceOnUse" x="-42" y="-179" width="480" height="481">
<path d="M-42 -178.5H438V301.5H-42V-178.5Z" fill="white"/>
</mask>
<g mask="url(#mask0_7_2)">
<path d="M42.0926 38.8538C53.27 41.8938 65.1433 43.7405 74.8566 50.5085C83.9126 57.0712 85.606 69.8898 82.1206 79.8578C75.1193 101.023 48.3913 103.297 29.6393 100.378C14.6833 98.8125 1.08465 87.2872 -0.0113525 67.5032H25.198C25.198 93.8818 74.906 79.8125 53.7033 65.7245C51.414 64.2152 48.8753 63.1245 46.246 62.3512C34.238 58.8218 21.4086 57.2858 11.2286 49.3498C-2.54336 37.7272 3.91931 16.3952 18.6273 8.06451C39.65 -3.39816 79.31 3.00051 79.31 33.7752C79.31 33.7752 56.2913 33.7752 56.2913 33.6098C46.4273 7.39651 4.37264 30.1938 42.0926 38.8538Z" fill="#714822"/>
</g>
<mask id="mask1_7_2" style="mask-type:luminance" maskUnits="userSpaceOnUse" x="-42" y="-179" width="480" height="481">
<path d="M-42 -178.5H438V301.5H-42V-178.5Z" fill="white"/>
</mask>
<g mask="url(#mask1_7_2)">
<path d="M175.472 34.0282H186.236C188.496 34.0282 190.189 33.4896 191.316 32.4176C192.449 31.3402 193.009 29.8749 193.009 28.0242V27.3109C193.009 25.4016 192.449 23.9229 191.316 22.8816C190.189 21.8389 188.496 21.3149 186.236 21.3149H175.472V34.0282ZM202.177 9.35891C205.156 11.1216 207.473 13.5402 209.144 16.6149C210.807 19.6896 211.643 23.1362 211.643 26.9536V28.1189C211.643 31.9376 210.807 35.3976 209.144 38.5016C207.473 41.6056 205.156 44.0389 202.177 45.8016C199.207 47.5576 195.815 48.4389 192.001 48.4389H175.472V67.1722H157.551V6.72158H192.001C195.815 6.72158 199.207 7.60291 202.177 9.35891Z" fill="#714822"/>
</g>
<mask id="mask2_7_2" style="mask-type:luminance" maskUnits="userSpaceOnUse" x="-42" y="-179" width="480" height="481">
<path d="M-42 -178.5H438V301.5H-42V-178.5Z" fill="white"/>
</mask>
<g mask="url(#mask2_7_2)">
<path d="M218.5 6.72134H237.551V67.216H218.5V6.72134Z" fill="#714822"/>
</g>
<mask id="mask3_7_2" style="mask-type:luminance" maskUnits="userSpaceOnUse" x="-42" y="-179" width="480" height="481">
<path d="M-42 -178.5H438V301.5H-42V-178.5Z" fill="white"/>
</mask>
<g mask="url(#mask3_7_2)">
<path d="M283.706 67.2157L264.283 34.5104V67.2157H247.119V6.72107H265.67L284.399 40.0851L284.487 6.72107H301.922V67.2157H283.706Z" fill="#714822"/>
</g>
<mask id="mask4_7_2" style="mask-type:luminance" maskUnits="userSpaceOnUse" x="-42" y="-179" width="480" height="481">
<path d="M-42 -178.5H438V301.5H-42V-178.5Z" fill="white"/>
</mask>
<g mask="url(#mask4_7_2)">
<path d="M378.773 53.8079C378.773 70.0972 368.678 81.0105 356.226 81.2639C343.775 81.0105 333.681 70.0972 333.681 53.8079C333.681 53.1812 333.691 52.5652 333.713 51.9399V51.8625C333.691 51.2359 333.681 50.6199 333.681 49.9945C333.681 33.7052 343.775 22.7905 356.226 22.5385C368.678 22.7905 378.773 33.7052 378.773 49.9945C378.773 50.6199 378.762 51.2359 378.739 51.8625V51.9399C378.762 52.5652 378.773 53.1812 378.773 53.8079ZM384.089 11.7119L383.913 11.5799C376.285 5.44653 366.321 2.37986 356.435 2.40252H356.018C346.131 2.37986 336.169 5.44653 328.539 11.5799L328.365 11.7119C316.538 21.1745 310.926 36.5519 311.035 51.8625V51.9399C310.926 67.2505 316.538 82.6265 328.365 92.0905L328.539 92.2225C336.169 98.3545 346.131 101.421 356.018 101.4H356.435C366.321 101.421 376.285 98.3545 383.913 92.2225L384.089 92.0905C395.915 82.6265 401.527 67.2505 401.418 51.9399V51.8625C401.527 36.5519 395.915 21.1745 384.089 11.7119Z" fill="#714822"/>
</g>
<mask id="mask5_7_2" style="mask-type:luminance" maskUnits="userSpaceOnUse" x="-42" y="-179" width="480" height="481">
<path d="M-42 -178.5H438V301.5H-42V-178.5Z" fill="white"/>
</mask>
<g mask="url(#mask5_7_2)">
<path d="M111.42 45.19C113.76 43.486 115.953 41.986 117.053 39.462H113.905C115.905 37.478 117.697 35.7033 119.483 33.93C119.4 33.81 119.317 33.698 119.235 33.586H116.86C118.805 30.3046 120.757 27.0233 122.605 23.9113C123.276 25.2713 123.996 27.002 124.957 28.6286C125.941 30.2913 127.165 31.8473 128.371 33.5726H125.677C125.595 33.678 125.512 33.782 125.428 33.8873C127.215 35.6473 129.007 37.4073 130.952 39.322H127.892C128.931 41.9366 131.091 43.4646 133.568 45.1686C126.037 46.754 118.881 46.718 111.42 45.19ZM129.837 6.59532H113.435L90.4694 67.4126L107.78 67.454L110.236 58.8366H131.796L134.26 67.454L151.708 67.4126L129.837 6.59532Z" fill="#714822"/>
</g>
<mask id="mask6_7_2" style="mask-type:luminance" maskUnits="userSpaceOnUse" x="-42" y="-179" width="480" height="481">
<path d="M-42 -178.5H438V301.5H-42V-178.5Z" fill="white"/>
</mask>
<g mask="url(#mask6_7_2)">
<path d="M43.3823 39.9747C54.5343 42.9934 66.3809 44.828 76.0729 51.5494C85.1076 58.0667 86.7969 70.7987 83.3196 80.6973C76.3343 101.717 49.6676 103.975 30.9569 101.077C16.0343 99.5227 2.46626 89.228 1.37292 69.5787H26.5263C26.5263 95.7773 76.1223 80.6533 54.9676 66.6613C52.6823 65.1627 50.1503 64.0787 47.5263 63.3107C35.5449 59.8053 22.7449 58.28 12.5876 50.3987C-1.15241 38.856 5.63026 18.1053 19.9703 9.39601C40.9449 -1.98799 81.2063 2.99201 81.2063 33.556C81.2063 33.556 58.2396 33.556 58.2396 33.392C48.3983 7.35868 5.74759 31.3733 43.3823 39.9747Z" fill="#35A647"/>
</g>
<mask id="mask7_7_2" style="mask-type:luminance" maskUnits="userSpaceOnUse" x="-42" y="-179" width="480" height="481">
<path d="M-42 -178.5H438V301.5H-42V-178.5Z" fill="white"/>
</mask>
<g mask="url(#mask7_7_2)">
<path d="M111.42 46.2891C113.76 44.6077 115.953 43.1264 117.053 40.6344H113.905C115.905 38.6757 117.697 36.9251 119.483 35.1731C119.4 35.0557 119.317 34.9451 119.235 34.8344H116.86C118.805 31.5957 120.757 28.3557 122.605 25.2837C123.276 26.6264 123.996 28.3357 124.957 29.9411C125.941 31.5811 127.165 33.1184 128.371 34.8211H125.677C125.595 34.9251 125.512 35.0277 125.428 35.1317C127.215 36.8691 129.007 38.6064 130.952 40.4957H127.892C128.931 43.0771 131.091 44.5864 133.568 46.2677C126.037 47.8331 118.881 47.7984 111.42 46.2891ZM131.221 7.37841H114.819L91.8533 67.4131L109.164 67.4544L111.621 58.9477H133.18L135.644 67.4544L153.092 67.4131L131.221 7.37841Z" fill="#35A647"/>
</g>
<mask id="mask8_7_2" style="mask-type:luminance" maskUnits="userSpaceOnUse" x="-42" y="-179" width="480" height="481">
<path d="M-42 -178.5H438V301.5H-42V-178.5Z" fill="white"/>
</mask>
<g mask="url(#mask8_7_2)">
<path d="M194.648 28.5293C194.648 30.3707 194.094 31.824 192.958 32.896C191.837 33.9627 190.149 34.496 187.893 34.496H177.15V21.8707H187.893C190.149 21.8707 191.837 22.3907 192.958 23.4213C194.094 24.46 194.648 25.9267 194.648 27.824V28.5293ZM210.746 17.1987C209.078 14.1467 206.766 11.7453 203.797 9.99466C200.836 8.25066 197.45 7.37866 193.644 7.37866H159.273V67.4133H177.15V48.808H193.644C197.45 48.808 200.836 47.9293 203.797 46.1853C206.766 44.4347 209.078 42.0187 210.746 38.9387C212.408 35.852 213.238 32.4187 213.238 28.6267V27.4707C213.238 23.6773 212.408 20.252 210.746 17.1987Z" fill="#35A647"/>
</g>
<mask id="mask9_7_2" style="mask-type:luminance" maskUnits="userSpaceOnUse" x="-42" y="-179" width="480" height="481">
<path d="M-42 -178.5H438V301.5H-42V-178.5Z" fill="white"/>
</mask>
<g mask="url(#mask9_7_2)">
<path d="M220.083 67.4547H239.088V7.37868H220.083V67.4547Z" fill="#35A647"/>
</g>
<mask id="mask10_7_2" style="mask-type:luminance" maskUnits="userSpaceOnUse" x="-42" y="-179" width="480" height="481">
<path d="M-42 -178.5H438V301.5H-42V-178.5Z" fill="white"/>
</mask>
<g mask="url(#mask10_7_2)">
<path d="M285.924 7.37798L285.835 40.51L267.147 7.37798H248.641V67.454H265.763V34.9726L285.142 67.454H303.318V7.37798H285.924Z" fill="#35A647"/>
</g>
<mask id="mask11_7_2" style="mask-type:luminance" maskUnits="userSpaceOnUse" x="-42" y="-179" width="480" height="481">
<path d="M-42 -178.5H438V301.5H-42V-178.5Z" fill="white"/>
</mask>
<g mask="url(#mask11_7_2)">
<path d="M379.998 54.8229C379.998 71.0043 369.92 81.8429 357.496 82.0923C345.074 81.8429 335.003 71.0043 335.003 54.8229C335.003 54.2069 335.016 53.5909 335.038 52.9683V52.8923C335.016 52.2696 335.003 51.6603 335.003 51.0376C335.003 34.8616 345.074 24.0229 357.496 23.7669C369.92 24.0229 379.998 34.8616 379.998 51.0376C379.998 51.6603 379.984 52.2696 379.963 52.8923V52.9683C379.984 53.5909 379.998 54.2069 379.998 54.8229ZM385.299 13.0189L385.126 12.8869C377.514 6.79626 367.574 3.75093 357.704 3.77226H357.29C347.427 3.75093 337.487 6.79626 329.874 12.8869L329.702 13.0189C317.9 22.4176 312.302 37.6856 312.412 52.8923V52.9683C312.302 68.1736 317.9 83.4496 329.702 92.8483L329.874 92.9789C337.487 99.0696 347.427 102.115 357.29 102.095H357.704C367.574 102.115 377.514 99.0696 385.126 92.9789L385.299 92.8483C397.1 83.4496 402.699 68.1736 402.588 52.9683V52.8923C402.699 37.6856 397.1 22.4176 385.299 13.0189Z" fill="#35A647"/>
</g>
</g>
<defs>
<clipPath id="clip0_7_2">
<rect width="403" height="102" fill="white"/>
</clipPath>
</defs>
</svg>
